<?xml version="1.0" encoding="utf-8"?>
<!-- Generator: Adobe Illustrator 15.0.1, SVG Export Plug-In . SVG Version: 6.00 Build 0)  -->
<!DOCTYPE svg PUBLIC "-//W3C//DTD SVG 1.1//EN" "http://www.w3.org/Graphics/SVG/1.1/DTD/svg11.dtd">
<svg version="1.1" id="Layer_1" xmlns="http://www.w3.org/2000/svg" xmlns:xlink="http://www.w3.org/1999/xlink" x="0px" y="0px"
	 width="50px" height="50px" viewBox="0 0 50 50" enable-background="new 0 0 50 50" xml:space="preserve">
<g>
	<g>
		<polygon fill="#ff5e00" points="40.811,37.37 40.811,32.734 38.811,32.734 38.811,37.37 34.174,37.37 34.174,39.37 38.811,39.37 
			38.811,44.005 40.811,44.005 40.811,39.37 45.445,39.37 45.445,37.37 		"/>
	</g>
</g>
<g>
	<g>
		<path fill="#ff5e00" d="M39.828,28.182c-1.479-1.979-3.25-3.703-5.297-5.094c-0.164-0.112-0.495-0.327-0.495-0.327l-0.8-0.519
			l-0.557,0.773c-2.447,3.397-6.398,5.426-10.572,5.426c-4.172,0-8.123-2.028-10.57-5.427l-0.559-0.776L9.77,23.032
			C3.653,27.152,0,34.014,0,41.383v3.215h31.762c1.865,2.404,4.775,3.963,8.049,3.963C45.43,48.561,50,43.988,50,38.37
			C50,32.757,45.438,28.189,39.828,28.182z M2,42.598v-1.215c0-6.549,3.172-12.656,8.51-16.43c2.844,3.454,7.111,5.488,11.601,5.488
			c4.491,0,8.757-2.035,11.601-5.488c1.418,1.002,2.688,2.175,3.802,3.498c-4.516,1.046-7.894,5.092-7.894,9.919
			c0,1.509,0.338,2.937,0.93,4.228H2z M39.811,46.561c-4.518,0-8.188-3.674-8.188-8.188c0-4.52,3.674-8.188,8.188-8.188
			c4.518,0,8.189,3.672,8.189,8.188S44.326,46.561,39.811,46.561z"/>
	</g>
</g>
<g>
	<g>
		<path fill="#ff5e00" d="M22.11,1.44c-6.046,0-10.964,4.919-10.964,10.965c0,6.046,4.918,10.964,10.964,10.964
			c6.046,0,10.965-4.918,10.965-10.964C33.075,6.359,28.156,1.44,22.11,1.44z M22.11,21.369c-4.942,0-8.964-4.021-8.964-8.964
			c0-4.943,4.021-8.965,8.964-8.965s8.965,4.021,8.965,8.965C31.075,17.348,27.055,21.369,22.11,21.369z"/>
	</g>
</g>
</svg>
