<?xml version="1.0" encoding="utf-8"?>
<!-- Generator: Adobe Illustrator 15.0.1, SVG Export Plug-In . SVG Version: 6.00 Build 0)  -->
<!DOCTYPE svg PUBLIC "-//W3C//DTD SVG 1.1//EN" "http://www.w3.org/Graphics/SVG/1.1/DTD/svg11.dtd">
<svg version="1.1" id="Layer_1" xmlns="http://www.w3.org/2000/svg" xmlns:xlink="http://www.w3.org/1999/xlink" x="0px" y="0px"
	 width="50px" height="50px" viewBox="0 0 50 50" enable-background="new 0 0 50 50" xml:space="preserve">
<g>
	<g>
		<path fill="#ff5e00" d="M47.264,21.094h0.002H28.906V2.77c0-1.508-1.221-2.77-2.729-2.77h-2.352c-1.508,0-2.734,1.261-2.734,2.77
			v18.325H2.734C1.227,21.094,0,22.313,0,23.822v2.362c0,1.508,1.227,2.725,2.734,2.725h18.359v18.391
			c0,1.51,1.226,2.703,2.734,2.703h2.351c1.508,0,2.729-1.193,2.729-2.703V28.906h18.354c1.508,0,2.736-1.215,2.736-2.723V23.82
			C50,22.313,48.771,21.094,47.264,21.094z"/>
	</g>
</g>
</svg>
