<?xml version="1.0" encoding="utf-8"?>
<!-- Generator: Adobe Illustrator 15.0.1, SVG Export Plug-In . SVG Version: 6.00 Build 0)  -->
<!DOCTYPE svg PUBLIC "-//W3C//DTD SVG 1.1//EN" "http://www.w3.org/Graphics/SVG/1.1/DTD/svg11.dtd">
<svg version="1.1" id="Layer_1" xmlns="http://www.w3.org/2000/svg" xmlns:xlink="http://www.w3.org/1999/xlink" x="0px" y="0px"
	 width="50px" height="50px" viewBox="0 0 50 50" enable-background="new 0 0 50 50" xml:space="preserve">
<g>
	<g>
		<path fill="#06d6d6" d="M44.732,0H5.268C2.358,0,0,2.368,0,5.268v39.464C0,47.643,2.368,50,5.268,50h39.464
			C47.643,50,50,47.632,50,44.732V5.268C50,2.368,47.632,0,44.732,0z M47.499,44.732c0,1.521-1.245,2.767-2.767,2.767H5.268
			c-1.521,0-2.767-1.245-2.767-2.767V5.268c0-1.521,1.246-2.767,2.767-2.767h39.464c1.521,0,2.768,1.245,2.768,2.767L47.499,44.732
			L47.499,44.732z"/>
		<path fill="#06d6d6" d="M40.188,9.125L19.906,31.296l-7.017-8.489c-0.832-1.001-2.167-1.001-2.998,0c-0.833,1-0.833,2.607,0,3.608
			l8.507,10.304c0.399,0.479,0.936,0.752,1.508,0.752l0,0c0.555,0,1.091-0.271,1.49-0.752l21.79-23.986c0.832-1,0.832-2.607,0-3.607
			C42.354,8.123,41.021,8.123,40.188,9.125z"/>
	</g>
</g>
</svg>
