<?xml version="1.0" encoding="utf-8"?>
<!-- Generator: Adobe Illustrator 15.0.1, SVG Export Plug-In . SVG Version: 6.00 Build 0)  -->
<!DOCTYPE svg PUBLIC "-//W3C//DTD SVG 1.1//EN" "http://www.w3.org/Graphics/SVG/1.1/DTD/svg11.dtd">
<svg version="1.1" id="Layer_1" xmlns="http://www.w3.org/2000/svg" xmlns:xlink="http://www.w3.org/1999/xlink" x="0px" y="0px"
	 width="50px" height="50px" viewBox="0 0 50 50" enable-background="new 0 0 50 50" xml:space="preserve">
<path fill="none" d="M44.732,0H5.268C2.358,0,0,2.368,0,5.268v39.464C0,47.643,2.368,50,5.268,50h39.464
	C47.643,50,50,47.632,50,44.732V5.268C50,2.368,47.632,0,44.732,0z M47.499,44.732c0,1.521-1.245,2.767-2.767,2.767H5.268
	c-1.521,0-2.767-1.245-2.767-2.767V5.268c0-1.521,1.246-2.767,2.767-2.767h39.464c1.521,0,2.768,1.246,2.768,2.767L47.499,44.732
	L47.499,44.732z"/>
<g>
	<g>
		<path fill="#ff5e00" d="M44.732,0H5.268C2.358,0,0,2.368,0,5.268v39.464C0,47.643,2.368,50,5.268,50h39.464
			C47.643,50,50,47.632,50,44.732V5.268C50,2.368,47.632,0,44.732,0z M47.499,44.732c0,1.521-1.245,2.767-2.767,2.767H5.268
			c-1.521,0-2.767-1.245-2.767-2.767V5.268c0-1.521,1.246-2.767,2.767-2.767h39.464c1.521,0,2.768,1.246,2.768,2.767L47.499,44.732
			L47.499,44.732z"/>
	</g>
</g>
</svg>
