<?xml version="1.0" encoding="utf-8"?>
<!-- Generator: Adobe Illustrator 15.0.1, SVG Export Plug-In . SVG Version: 6.00 Build 0)  -->
<!DOCTYPE svg PUBLIC "-//W3C//DTD SVG 1.1//EN" "http://www.w3.org/Graphics/SVG/1.1/DTD/svg11.dtd">
<svg version="1.1" id="Layer_1" xmlns="http://www.w3.org/2000/svg" xmlns:xlink="http://www.w3.org/1999/xlink" x="0px" y="0px"
	 width="40px" height="50px" viewBox="0 0 40 50" enable-background="new 0 0 40 50" xml:space="preserve">
<g>
	<g>
		<path fill="#00203E" d="M34.35,5.99H26.65C26.268,2.624,23.432,0,20,0c-3.432,0-6.265,2.624-6.649,5.99h-7.7
			C2.535,5.99,0,8.553,0,11.703v0.293c0,2.407,1.482,4.467,3.571,5.306v26.985c0,3.15,2.535,5.713,5.651,5.713h21.555
			c3.117,0,5.65-2.563,5.65-5.713V17.302C38.516,16.463,40,14.403,40,11.996v-0.293C40,8.553,37.465,5.99,34.35,5.99z M20,2.709
			c1.952,0,3.583,1.415,3.941,3.281h-7.882C16.419,4.123,18.049,2.709,20,2.709z M33.749,44.287c0,1.656-1.332,3.004-2.972,3.004
			H9.222c-1.638,0-2.971-1.348-2.971-3.004V17.708h27.498V44.287z M37.32,11.996c0,1.656-1.334,3.003-2.971,3.003H5.651
			c-1.638,0-2.971-1.348-2.971-3.003v-0.293c0-1.656,1.333-3.003,2.971-3.003H34.35c1.639,0,2.973,1.348,2.973,3.003L37.32,11.996
			L37.32,11.996z"/>
		<path fill="#00203E" d="M12.815,43.826c0.74,0,1.34-0.605,1.34-1.354V27.221c0-0.748-0.6-1.354-1.34-1.354
			c-0.74,0-1.34,0.605-1.34,1.354v15.252C11.476,43.221,12.076,43.826,12.815,43.826z"/>
		<path fill="#00203E" d="M20,43.826c0.741,0,1.34-0.605,1.34-1.354V27.221c0-0.748-0.6-1.354-1.34-1.354s-1.34,0.605-1.34,1.354
			v15.252C18.66,43.221,19.26,43.826,20,43.826z"/>
		<path fill="#00203E" d="M27.186,43.826c0.738,0,1.34-0.605,1.34-1.354V27.221c0-0.748-0.602-1.354-1.34-1.354
			c-0.74,0-1.34,0.605-1.34,1.354v15.252C25.846,43.221,26.443,43.826,27.186,43.826z"/>
	</g>
</g>
</svg>
