<?xml version="1.0" encoding="utf-8"?>
<!-- Generator: Adobe Illustrator 22.1.0, SVG Export Plug-In . SVG Version: 6.00 Build 0)  -->
<svg version="1.1" id="Layer_1" xmlns="http://www.w3.org/2000/svg" xmlns:xlink="http://www.w3.org/1999/xlink" x="0px" y="0px"
	 viewBox="0 0 40 50" style="enable-background:new 0 0 40 50;" xml:space="preserve">
<style type="text/css">
	.st0{fill:#CC0000;}
</style>
<g>
	<g>
		<path class="st0" d="M34.3,6h-7.7c-0.4-3.4-3.2-6-6.6-6s-6.3,2.6-6.6,6H5.7C2.5,6,0,8.6,0,11.7V12c0,2.4,1.5,4.5,3.6,5.3v27
			c0,3.2,2.5,5.7,5.7,5.7h21.6c3.1,0,5.7-2.6,5.7-5.7v-27c2.1-0.8,3.6-2.9,3.6-5.3v-0.3C40,8.6,37.5,6,34.3,6z M20,2.7
			c2,0,3.6,1.4,3.9,3.3h-7.9C16.4,4.1,18,2.7,20,2.7z M33.7,44.3c0,1.7-1.3,3-3,3H9.2c-1.6,0-3-1.3-3-3V17.7h27.5V44.3z M37.3,12
			c0,1.7-1.3,3-3,3H5.7c-1.6,0-3-1.3-3-3v-0.3c0-1.7,1.3-3,3-3h28.7c1.6,0,3,1.3,3,3L37.3,12L37.3,12z"/>
		<path class="st0" d="M12.8,43.8c0.7,0,1.3-0.6,1.3-1.4V27.2c0-0.7-0.6-1.4-1.3-1.4s-1.3,0.6-1.3,1.4v15.3
			C11.5,43.2,12.1,43.8,12.8,43.8z"/>
		<path class="st0" d="M20,43.8c0.7,0,1.3-0.6,1.3-1.4V27.2c0-0.7-0.6-1.4-1.3-1.4s-1.3,0.6-1.3,1.4v15.3
			C18.7,43.2,19.3,43.8,20,43.8z"/>
		<path class="st0" d="M27.2,43.8c0.7,0,1.3-0.6,1.3-1.4V27.2c0-0.7-0.6-1.4-1.3-1.4c-0.7,0-1.3,0.6-1.3,1.4v15.3
			C25.8,43.2,26.4,43.8,27.2,43.8z"/>
	</g>
</g>
</svg>
