<?xml version="1.0" encoding="utf-8"?>
<!-- Generator: Adobe Illustrator 22.1.0, SVG Export Plug-In . SVG Version: 6.00 Build 0)  -->
<svg version="1.1" id="Capa_1" xmlns="http://www.w3.org/2000/svg" xmlns:xlink="http://www.w3.org/1999/xlink" x="0px" y="0px"
	 viewBox="0 0 27 33.8" style="enable-background:new 0 0 27 33.8;" xml:space="preserve">
<style type="text/css">
	.st0{fill:#CC0000;}
	.st1{fill:#00203F;}
	.st2{fill:#FFFFFF;}
</style>
<g>
	<g>
		<path class="st0" d="M11,0C6.1,0,2.1,4,2.1,8.9c0,1.5,0.4,2.9,1.1,4.3c0.2,0.4,0.6,0.6,1,0.6c0.2,0,0.4,0,0.5-0.1
			c0.5-0.3,0.7-1,0.4-1.5c-0.6-1-0.9-2.1-0.9-3.2c0-3.7,3-6.7,6.7-6.7s6.7,3,6.7,6.7c0,0.5-0.1,1.1-0.3,1.7
			c-0.2,0.6,0.2,1.2,0.8,1.4c0.6,0.2,1.2-0.2,1.4-0.8c0.2-0.9,0.3-1.6,0.3-2.3C19.8,4,15.9,0,11,0z"/>
	</g>
</g>
<path class="st1" d="M24.1,14.8c-0.6,0-1.2,0.2-1.6,0.5c-0.4-1.1-1.5-2-2.8-2c-0.6,0-1.2,0.2-1.6,0.5c-0.4-1.1-1.5-2-2.8-2
	c-0.5,0-1,0.1-1.5,0.4V7.4c0-1.6-1.3-2.9-2.9-2.9S8,5.8,8,7.4v12.4L5.4,18c-1.5-1.1-3.7-1-5,0.4c-0.9,0.9-0.9,2.3,0,3.1l10.4,10.4
	c1.2,1.2,2.9,1.9,4.7,1.9h3.4c4.4,0,8.1-3.6,8.1-8.1v-8.1C27,16.1,25.7,14.8,24.1,14.8z"/>
<g>
	<path class="st1" d="M15.5,31.9c-1.3,0-2.4-0.5-3.3-1.4L1.7,20.1C1.7,20,1.7,20,1.7,19.9s0-0.2,0.1-0.2c0.4-0.4,0.9-0.6,1.4-0.6
		c0.4,0,0.8,0.1,1.2,0.4L8,22.3c0.2,0.1,0.4,0.2,0.7,0.2c0.2,0,0.4,0,0.5-0.1c0.4-0.2,0.6-0.6,0.6-1V7.4c0-0.6,0.5-1.1,1.1-1.1
		c0.6,0,1.1,0.5,1.1,1.1v11c0,0.6,0.5,1.1,1.1,1.1s1.1-0.5,1.1-1.1v-3.7c0-0.6,0.5-1.1,1.1-1.1c0.6,0,1.1,0.5,1.1,1.1v3.7
		c0,0.6,0.5,1.1,1.1,1.1s1.1-0.5,1.1-1.1v-2.2c0-0.6,0.5-1.1,1.1-1.1s1.1,0.5,1.1,1.1v2.2c0,0.6,0.5,1.1,1.1,1.1s1.1-0.5,1.1-1.1
		v-0.7c0-0.6,0.5-1.1,1.1-1.1c0.6,0,1.1,0.5,1.1,1.1V26c-0.2,3.3-2.9,5.9-6.2,5.9H15.5z"/>
	<path class="st2" d="M10.9,6.8c0.3,0,0.6,0.3,0.6,0.6v11c0,0.9,0.7,1.6,1.6,1.6c0.9,0,1.6-0.7,1.6-1.6v-3.7c0-0.4,0.3-0.6,0.6-0.6
		c0.3,0,0.6,0.3,0.6,0.6v3.7c0,0.9,0.7,1.6,1.6,1.6c0.9,0,1.6-0.7,1.6-1.6v-2.2c0-0.4,0.3-0.6,0.6-0.6c0.3,0,0.6,0.3,0.6,0.6v2.2
		c0,0.9,0.7,1.6,1.6,1.6s1.6-0.7,1.6-1.6v-0.7c0-0.4,0.3-0.6,0.6-0.6c0.3,0,0.6,0.3,0.6,0.6v8.1V26c-0.2,3-2.7,5.5-5.8,5.5h-3.4
		c-1.1,0-2.2-0.4-3-1.3L2.1,19.9c0.3-0.2,0.6-0.4,1-0.4c0.3,0,0.7,0.1,0.9,0.3l0,0l0,0l3.7,2.8c0.3,0.2,0.6,0.3,0.9,0.3
		c0.2,0,0.5-0.1,0.7-0.2c0.5-0.3,0.9-0.8,0.9-1.4V7.4C10.2,7.1,10.5,6.8,10.9,6.8 M10.9,6c-0.8,0-1.5,0.7-1.5,1.5v13.9
		c0,0.3-0.2,0.5-0.4,0.7c-0.1,0.1-0.2,0.1-0.3,0.1c-0.2,0-0.3,0-0.4-0.1l-3.7-2.8c-0.4-0.3-0.9-0.5-1.4-0.5c-0.6,0-1.2,0.2-1.7,0.7
		c-0.3,0.3-0.3,0.7,0,1l10.4,10.4c1,1,2.3,1.5,3.6,1.5h3.4c3.6,0,6.6-3,6.6-6.6h0v-8.1c0-0.8-0.7-1.5-1.5-1.5
		c-0.8,0-1.5,0.7-1.5,1.5v0.7c0,0.4-0.3,0.7-0.7,0.7s-0.7-0.3-0.7-0.7v-2.2c0-0.8-0.7-1.5-1.5-1.5c-0.8,0-1.5,0.7-1.5,1.5v2.2
		c0,0.4-0.3,0.7-0.7,0.7c-0.4,0-0.7-0.3-0.7-0.7v-3.7c0-0.8-0.7-1.5-1.5-1.5c-0.8,0-1.5,0.7-1.5,1.5v3.7c0,0.4-0.3,0.7-0.7,0.7
		c-0.4,0-0.7-0.3-0.7-0.7v-11C12.3,6.6,11.7,6,10.9,6L10.9,6z"/>
</g>
</svg>
