<?xml version="1.0" encoding="utf-8"?>
<!-- Generator: Adobe Illustrator 22.1.0, SVG Export Plug-In . SVG Version: 6.00 Build 0)  -->
<svg version="1.1" id="Capa_1" xmlns="http://www.w3.org/2000/svg" xmlns:xlink="http://www.w3.org/1999/xlink" x="0px" y="0px"
	 viewBox="0 0 490.7 490.7" style="enable-background:new 0 0 490.7 490.7;" xml:space="preserve">
<g>
	<g>
		<path d="M224,21.3c-47.1,0-85.3,38.3-85.3,85.3c0,14.2,3.7,28.1,11,41.3c1.9,3.5,5.6,5.5,9.3,5.5c1.8,0,3.5-0.4,5.2-1.3
			c5.1-2.9,7-9.4,4.1-14.5c-5.5-9.9-8.3-20.4-8.3-30.9c0-35.3,28.7-64,64-64s64,28.7,64,64c0,5.1-0.8,10.4-2.5,16.7
			c-1.5,5.7,1.8,11.5,7.5,13.1c5.8,1.7,11.6-1.8,13.1-7.5c2.2-8.2,3.3-15.3,3.3-22.4C309.3,59.6,271.1,21.3,224,21.3z"/>
	</g>
</g>
<g>
	<g>
		<path d="M85.3,0c-5.9,0-10.7,4.8-10.7,10.7v170.7c0,5.9,4.8,10.7,10.7,10.7S96,187.2,96,181.3V10.7C96,4.8,91.2,0,85.3,0z"/>
	</g>
</g>
<g>
	<g>
		<path d="M135.5,45.8L92.9,3.1C88.7-1,82-1,77.8,3.1L35.1,45.8C31,50,31,56.7,35.1,60.9s10.9,4.2,15.1,0l35.1-35.1l35.1,35.1
			c2.1,2.1,4.8,3.1,7.6,3.1s5.5-1,7.6-3.1C139.7,56.7,139.7,50,135.5,45.8z"/>
	</g>
</g>
<g>
	<g>
		<path d="M35.1,146.2l42.7,42.7c4.2,4.2,10.9,4.2,15.1,0l42.7-42.7c4.2-4.2,4.2-10.9,0-15.1c-4.2-4.2-10.9-4.2-15.1,0l-35.1,35.1
			l-35.1-35.1c-2.1-2.1-4.8-3.1-7.6-3.1s-5.5,1-7.6,3.1C31,135.3,31,142.1,35.1,146.2z"/>
	</g>
</g>
<g>
	<g>
		<path d="M416,213.3c-8.8,0-16.9,2.7-23.7,7.2c-5.8-16.6-21.7-28.5-40.3-28.5c-8.8,0-16.9,2.7-23.7,7.2
			c-5.8-16.6-21.7-28.5-40.3-28.5c-7.8,0-15.1,2.1-21.3,5.7v-69.7c0-23.5-19.1-42.7-42.7-42.7s-42.7,19.1-42.7,42.7V288l-37.1-27.8
			c-22-16.5-53.3-14.3-72.7,5.2c-12.5,12.5-12.5,32.8,0,45.2l151.9,151.9c18.1,18.1,42.3,28.1,67.9,28.1h50
			c64.7,0,117.3-52.6,117.3-117.3V256C458.7,232.5,439.5,213.3,416,213.3z M437.3,373.3c0,52.9-43.1,96-96,96h-50
			c-20,0-38.7-7.8-52.8-21.9L86.6,295.5c-4.2-4.2-4.2-10.9,0-15.1c6.6-6.6,15.4-10,24.3-10c7.2,0,14.5,2.2,20.5,6.8l54.1,40.6
			c3.2,2.4,7.6,2.8,11.2,1c3.6-1.8,5.9-5.5,5.9-9.5V106.7c0-11.8,9.6-21.3,21.3-21.3s21.3,9.6,21.3,21.3v160
			c0,5.9,4.8,10.7,10.7,10.7c5.9,0,10.7-4.8,10.7-10.7v-53.3c0-11.8,9.6-21.3,21.3-21.3s21.3,9.6,21.3,21.3v53.3
			c0,5.9,4.8,10.7,10.7,10.7s10.7-4.8,10.7-10.7v-32c0-11.8,9.6-21.3,21.3-21.3s21.3,9.6,21.3,21.3v32c0,5.9,4.8,10.7,10.7,10.7
			s10.7-4.8,10.7-10.7V256c0-11.8,9.6-21.3,21.3-21.3s21.3,9.6,21.3,21.3V373.3z"/>
	</g>
</g>
</svg>
