<?xml version="1.0" encoding="utf-8"?>
<!-- Generator: Adobe Illustrator 22.1.0, SVG Export Plug-In . SVG Version: 6.00 Build 0)  -->
<svg version="1.1" id="Capa_1" xmlns="http://www.w3.org/2000/svg" xmlns:xlink="http://www.w3.org/1999/xlink" x="0px" y="0px"
	 viewBox="0 0 469.7 469.7" style="enable-background:new 0 0 469.7 469.7;" xml:space="preserve">
<style type="text/css">
	.st0{fill:#00203F;}
	.st1{fill:#FFFFFF;}
</style>
<g>
	<g>
		<path class="st0" d="M203,0.3c-47.1,0-85.3,38.3-85.3,85.3c0,14.2,3.7,28.1,11,41.3c1.9,3.5,5.6,5.5,9.3,5.5
			c1.8,0,3.5-0.4,5.2-1.3c5.1-2.9,7-9.4,4.1-14.5c-5.5-9.9-8.3-20.4-8.3-30.9c0-35.3,28.7-64,64-64s64,28.7,64,64
			c0,5.1-0.8,10.4-2.5,16.7c-1.5,5.7,1.8,11.5,7.5,13.1c5.8,1.7,11.6-1.8,13.1-7.5c2.2-8.2,3.3-15.3,3.3-22.4
			C288.3,38.6,250.1,0.3,203,0.3z"/>
	</g>
</g>
<path class="st0" d="M395,192.3c-8.8,0-16.9,2.7-23.7,7.2c-5.8-16.6-21.7-28.5-40.3-28.5c-8.8,0-16.9,2.7-23.7,7.2
	c-5.8-16.6-21.7-28.5-40.3-28.5c-7.8,0-15.1,2.1-21.3,5.7V85.7c0-23.5-19.1-42.7-42.7-42.7s-42.7,19.1-42.7,42.7V267l-37.1-27.8
	c-22-16.5-53.3-14.3-72.7,5.2c-12.5,12.5-12.5,32.8,0,45.2l151.9,151.9c18.1,18.1,42.3,28.1,67.9,28.1h50
	c64.7,0,117.3-52.6,117.3-117.3V235C437.7,211.5,418.5,192.3,395,192.3z"/>
<g>
	<path class="st0" d="M270.3,442.3c-18.3,0-35.6-7.2-48.6-20.1L69.8,270.3c-0.9-0.9-1.4-2.1-1.4-3.3s0.5-2.4,1.4-3.3
		c5.3-5.3,12.4-8.2,20.1-8.2c6.2,0,12.2,2,16.8,5.6l54.1,40.6c2.9,2.1,6.4,3.3,10,3.3c2.6,0,5.2-0.6,7.5-1.8
		c5.6-2.8,9.2-8.6,9.2-14.9V85.7c0-8.4,6.9-15.3,15.3-15.3s15.3,6.9,15.3,15.3v160c0,9.2,7.5,16.7,16.7,16.7
		c9.2,0,16.7-7.5,16.7-16.7v-53.3c0-8.4,6.9-15.3,15.3-15.3s15.3,6.9,15.3,15.3v53.3c0,9.2,7.5,16.7,16.7,16.7
		c9.2,0,16.7-7.5,16.7-16.7v-32c0-8.4,6.9-15.3,15.3-15.3s15.3,6.9,15.3,15.3v32c0,9.2,7.5,16.7,16.7,16.7c9.2,0,16.7-7.5,16.7-16.7
		V235c0-8.4,6.9-15.3,15.3-15.3s15.3,6.9,15.3,15.3v121.6c-2.2,47.7-41.7,85.7-89.9,85.7H270.3z"/>
	<path class="st1" d="M202.9,76.4c5,0,9.3,4.3,9.3,9.3v160c0,12.5,10.2,22.7,22.7,22.7s22.7-10.2,22.7-22.7v-53.3
		c0-5.1,4.2-9.3,9.3-9.3c5,0,9.3,4.3,9.3,9.3v53.3c0,12.5,10.2,22.7,22.7,22.7s22.7-10.2,22.7-22.7v-32c0-5.1,4.2-9.3,9.3-9.3
		c5,0,9.3,4.3,9.3,9.3v32c0,12.5,10.2,22.7,22.7,22.7s22.7-10.2,22.7-22.7V235c0-5.1,4.2-9.3,9.3-9.3c5,0,9.3,4.3,9.3,9.3v117.3v4.1
		c-2.2,44.4-39,79.9-83.9,79.9h-50c-16.7,0-32.5-6.5-44.3-18.4L75,267c4.1-3.6,9.3-5.6,14.9-5.6c4.9,0,9.6,1.5,13.2,4.3l0,0l0,0
		l54.1,40.6c3.9,2.9,8.7,4.5,13.6,4.5c3.5,0,7-0.8,10.1-2.4c7.6-3.8,12.5-11.7,12.5-20.2V85.7C193.6,80.6,197.8,76.4,202.9,76.4
		 M202.9,64.4c-11.7,0-21.3,9.5-21.3,21.3v202.6c0,4-2.3,7.7-5.9,9.5c-1.5,0.8-3.1,1.1-4.8,1.1c-2.3,0-4.6-0.7-6.4-2.1l-54.1-40.6
		c-6-4.6-13.3-6.8-20.5-6.8c-8.9,0-17.7,3.4-24.3,10c-4.2,4.2-4.2,10.9,0,15.1l151.9,151.9c14.1,14.1,32.8,21.9,52.8,21.9h50
		c52.9,0,96-43.1,96-96h-0.1V235c0-11.7-9.6-21.3-21.3-21.3c-11.7,0-21.3,9.5-21.3,21.3v10.7c0,5.9-4.8,10.7-10.7,10.7
		s-10.7-4.8-10.7-10.7v-32c0-11.7-9.6-21.3-21.3-21.3c-11.7,0-21.3,9.5-21.3,21.3v32c0,5.9-4.8,10.7-10.7,10.7s-10.7-4.8-10.7-10.7
		v-53.3c0-11.7-9.6-21.3-21.3-21.3c-11.7,0-21.3,9.5-21.3,21.3v53.3c0,5.9-4.8,10.7-10.7,10.7c-5.9,0-10.7-4.8-10.7-10.7v-160
		C224.2,74,214.6,64.4,202.9,64.4L202.9,64.4z"/>
</g>
</svg>
