<?xml version="1.0" encoding="utf-8"?>
<!-- Generator: Adobe Illustrator 22.1.0, SVG Export Plug-In . SVG Version: 6.00 Build 0)  -->
<svg version="1.1" id="Capa_1" xmlns="http://www.w3.org/2000/svg" xmlns:xlink="http://www.w3.org/1999/xlink" x="0px" y="0px"
	 viewBox="0 0 27 33.8" style="enable-background:new 0 0 27 33.8;" xml:space="preserve">
<style type="text/css">
	.st0{fill:#FF0000;}
	.st1{fill:#00203F;}
	.st2{fill:#5AFFFF;}
</style>
<g>
	<g>
		<path class="st0" d="M10.9,0.1C6.6,0.1,3,4,3,8.8c0,1.4,0.3,2.9,1,4.2c0.2,0.4,0.5,0.6,0.9,0.6c0.2,0,0.3,0,0.5-0.1
			c0.5-0.3,0.6-1,0.4-1.5C5.3,10.9,5,9.8,5,8.8c0-3.6,2.6-6.5,5.9-6.5s5.9,2.9,5.9,6.5c0,0.5-0.1,1.1-0.2,1.7
			c-0.1,0.6,0.2,1.2,0.7,1.3c0.5,0.2,1.1-0.2,1.2-0.8c0.2-0.8,0.3-1.6,0.3-2.3C18.8,4,15.3,0.1,10.9,0.1z"/>
	</g>
</g>
<g>
	<g>
		<path class="st1" d="M24.1,14.9c-0.6,0-1.2,0.2-1.6,0.5c-0.4-1.1-1.5-1.9-2.7-1.9c-0.6,0-1.2,0.2-1.6,0.5
			c-0.4-1.1-1.5-1.9-2.7-1.9c-0.5,0-1,0.1-1.5,0.4V7.7c0-1.6-1.3-2.9-2.9-2.9S8.1,6.1,8.1,7.7V20l-2.5-1.9c-1.5-1.1-3.6-1-5,0.4
			c-0.9,0.9-0.9,2.2,0,3.1L11,31.9c1.2,1.2,2.9,1.9,4.6,1.9H19c4.4,0,8-3.6,8-8v-8C27,16.2,25.7,14.9,24.1,14.9z M25.5,25.8
			c0,3.6-2.9,6.5-6.5,6.5h-3.4c-1.4,0-2.6-0.5-3.6-1.5L1.7,20.5c-0.3-0.3-0.3-0.7,0-1c0.4-0.4,1-0.7,1.7-0.7c0.5,0,1,0.1,1.4,0.5
			L8.4,22c0.2,0.2,0.5,0.2,0.8,0.1c0.2-0.1,0.4-0.4,0.4-0.6V7.7c0-0.8,0.7-1.5,1.5-1.5c0.8,0,1.5,0.7,1.5,1.5v10.9
			c0,0.4,0.3,0.7,0.7,0.7c0.4,0,0.7-0.3,0.7-0.7v-3.6c0-0.8,0.7-1.5,1.5-1.5c0.8,0,1.5,0.7,1.5,1.5v3.6c0,0.4,0.3,0.7,0.7,0.7
			s0.7-0.3,0.7-0.7v-2.2c0-0.8,0.7-1.5,1.5-1.5c0.8,0,1.5,0.7,1.5,1.5v2.2c0,0.4,0.3,0.7,0.7,0.7s0.7-0.3,0.7-0.7v-0.7
			c0-0.8,0.7-1.5,1.5-1.5s1.5,0.7,1.5,1.5L25.5,25.8L25.5,25.8z"/>
	</g>
</g>
<path class="st2" d="M25.5,25.8c0,3.6-2.9,6.5-6.5,6.5h-3.4c-1.4,0-2.6-0.5-3.6-1.5L1.7,20.5c-0.3-0.3-0.3-0.7,0-1
	c0.4-0.4,1-0.7,1.7-0.7c0.5,0,1,0.1,1.4,0.5L8.4,22c0.2,0.2,0.5,0.2,0.8,0.1c0.2-0.1,0.4-0.4,0.4-0.6V7.7c0-0.8,0.7-1.5,1.5-1.5
	c0.8,0,1.5,0.7,1.5,1.5v10.9c0,0.4,0.3,0.7,0.7,0.7c0.4,0,0.7-0.3,0.7-0.7v-3.6c0-0.8,0.7-1.5,1.5-1.5c0.8,0,1.5,0.7,1.5,1.5v3.6
	c0,0.4,0.3,0.7,0.7,0.7s0.7-0.3,0.7-0.7v-2.2c0-0.8,0.7-1.5,1.5-1.5c0.8,0,1.5,0.7,1.5,1.5v2.2c0,0.4,0.3,0.7,0.7,0.7
	s0.7-0.3,0.7-0.7v-0.7c0-0.8,0.7-1.5,1.5-1.5s1.5,0.7,1.5,1.5L25.5,25.8L25.5,25.8z"/>
</svg>
