<?xml version="1.0" encoding="utf-8"?>
<!-- Generator: Adobe Illustrator 15.0.1, SVG Export Plug-In . SVG Version: 6.00 Build 0)  -->
<!DOCTYPE svg PUBLIC "-//W3C//DTD SVG 1.1//EN" "http://www.w3.org/Graphics/SVG/1.1/DTD/svg11.dtd">
<svg version="1.1" id="Layer_1" xmlns="http://www.w3.org/2000/svg" xmlns:xlink="http://www.w3.org/1999/xlink" x="0px" y="0px"
	 width="60px" height="50px" viewBox="-2.424 0 60 50" enable-background="new -2.424 0 60 50" xml:space="preserve">
<g>
	<g>
		<path fill="#FFFFFF" d="M20.81,40.973c-0.191,0-0.381-0.05-0.554-0.147c-0.343-0.197-0.554-0.563-0.554-0.956v-8.309H-1.319
			c-0.61,0-1.105-0.494-1.105-1.104V19.544c0-0.61,0.495-1.104,1.104-1.104h21.021v-8.307c0-0.395,0.211-0.759,0.554-0.957
			c0.343-0.197,0.765-0.197,1.104,0l25.75,14.868c0.342,0.197,0.553,0.562,0.553,0.956s-0.211,0.759-0.553,0.956L21.36,40.824
			C21.19,40.923,20.999,40.973,20.81,40.973z M-0.215,29.352h21.023c0.607,0,1.104,0.494,1.104,1.104v7.499L44.35,25L21.913,12.046
			v7.499c0,0.61-0.495,1.104-1.104,1.104H-0.215V29.352z"/>
	</g>
</g>
<path fill="#FFFFFF" d="M52.305,0H12.842C9.932,0,7.575,2.368,7.575,5.268v9.402h2.501V5.268c0-1.521,1.246-2.767,2.767-2.767
	h39.465c1.521,0,2.769,1.246,2.769,2.767l-0.001,39.464c0,1.521-1.245,2.767-2.768,2.767H12.842c-1.521,0-2.767-1.245-2.767-2.767
	V35.33h-2.5v9.402c0,2.91,2.368,5.268,5.268,5.268h39.465c2.909,0,5.269-2.368,5.269-5.268V5.268C57.575,2.368,55.206,0,52.305,0z"
	/>
</svg>
