<?xml version="1.0" encoding="utf-8"?>
<!-- Generator: Adobe Illustrator 22.1.0, SVG Export Plug-In . SVG Version: 6.00 Build 0)  -->
<svg version="1.1" id="Layer_1" xmlns="http://www.w3.org/2000/svg" xmlns:xlink="http://www.w3.org/1999/xlink" x="0px" y="0px"
	 viewBox="0 0 60 50" style="enable-background:new 0 0 60 50;" xml:space="preserve">
<style type="text/css">
	.st0{fill:#FFFFFF;}
</style>
<g>
	<g>
		<path class="st0" d="M23.2,41c-0.2,0-0.4,0-0.6-0.1c-0.3-0.2-0.6-0.6-0.6-1v-8.3H1c-0.6,0-1.1-0.5-1.1-1.1v-11
			c0-0.6,0.5-1.1,1.1-1.1h21v-8.3c0-0.4,0.2-0.8,0.6-1C23,9,23.4,9,23.8,9.2L49.5,24c0.3,0.2,0.6,0.6,0.6,1s-0.2,0.8-0.6,1
			L23.8,40.8C23.6,40.9,23.4,41,23.2,41z"/>
		<path class="st0" d="M2.2,29.4h21c0.6,0,1.1,0.5,1.1,1.1V38l22.4-13L24.3,12v7.5c0,0.6-0.5,1.1-1.1,1.1h-21
			C2.2,20.6,2.2,29.4,2.2,29.4z"/>
	</g>
</g>
<path class="st0" d="M54.7,0H15.3C12.4,0,10,2.4,10,5.3v9.4h2.5V5.3c0-1.5,1.2-2.8,2.8-2.8h39.5c1.5,0,2.8,1.2,2.8,2.8v39.5
	c0,1.5-1.2,2.8-2.8,2.8H15.3c-1.5,0-2.8-1.2-2.8-2.8v-9.4H10v9.4c0,2.9,2.4,5.3,5.3,5.3h39.5c2.9,0,5.3-2.4,5.3-5.3V5.3
	C60,2.4,57.6,0,54.7,0z"/>
</svg>
