<?xml version="1.0" encoding="utf-8"?>
<!-- Generator: Adobe Illustrator 15.0.1, SVG Export Plug-In . SVG Version: 6.00 Build 0)  -->
<!DOCTYPE svg PUBLIC "-//W3C//DTD SVG 1.1//EN" "http://www.w3.org/Graphics/SVG/1.1/DTD/svg11.dtd">
<svg version="1.1" id="Layer_1" xmlns="http://www.w3.org/2000/svg" xmlns:xlink="http://www.w3.org/1999/xlink" x="0px" y="0px"
	 width="60px" height="50px" viewBox="-2.424 0 60 50" enable-background="new -2.424 0 60 50" xml:space="preserve">
<g>
	<g>
		<path fill="#FFFFFF" d="M30.723,40.973c-0.191,0-0.381-0.05-0.555-0.146c-0.343-0.197-0.554-0.563-0.554-0.956v-8.31H8.594
			c-0.61,0-1.105-0.494-1.105-1.104V19.544c0-0.61,0.495-1.104,1.104-1.104h21.021v-8.307c0-0.395,0.211-0.759,0.554-0.957
			c0.344-0.197,0.766-0.197,1.104,0l25.75,14.868c0.343,0.197,0.554,0.562,0.554,0.956s-0.211,0.759-0.553,0.956l-25.75,14.868
			C31.103,40.923,30.912,40.973,30.723,40.973z M9.698,29.352h21.023c0.606,0,1.104,0.494,1.104,1.104v7.499L54.263,25
			L31.826,12.046v7.499c0,0.61-0.495,1.104-1.104,1.104H9.698V29.352z"/>
	</g>
</g>
<path fill="#FFFFFF" d="M-2.424,5.268v39.464c0,2.899,2.359,5.268,5.269,5.268h39.465c2.898,0,5.268-2.357,5.268-5.268V35.33h-2.5
	v9.402c0,1.521-1.246,2.767-2.767,2.767H2.844c-1.522,0-2.769-1.246-2.769-2.767V5.268c0-1.521,1.248-2.767,2.77-2.767H42.31
	c1.521,0,2.767,1.246,2.767,2.767v9.402h2.501V5.268c0-2.9-2.356-5.268-5.267-5.268H2.846C-0.054,0-2.423,2.368-2.424,5.268z"/>
</svg>
