<?xml version="1.0" encoding="utf-8"?>
<!-- Generator: Adobe Illustrator 22.1.0, SVG Export Plug-In . SVG Version: 6.00 Build 0)  -->
<svg version="1.1" id="Layer_1" xmlns="http://www.w3.org/2000/svg" xmlns:xlink="http://www.w3.org/1999/xlink" x="0px" y="0px"
	 viewBox="0 0 60 50" style="enable-background:new 0 0 60 50;" xml:space="preserve">
<style type="text/css">
	.st0{fill:#FFFFFF;}
</style>
<g>
	<g>
		<path class="st0" d="M33.1,41c-0.2,0-0.4,0-0.6-0.1c-0.3-0.2-0.6-0.6-0.6-1v-8.3H11c-0.6,0-1.1-0.5-1.1-1.1V19.5
			c0-0.6,0.5-1.1,1.1-1.1h21v-8.3c0-0.4,0.2-0.8,0.6-1c0.3-0.2,0.8-0.2,1.1,0L59.4,24c0.3,0.2,0.6,0.6,0.6,1s-0.2,0.8-0.6,1
			L33.7,40.8C33.5,40.9,33.3,41,33.1,41z"/>
		<path class="st0" d="M12.1,29.4h21c0.6,0,1.1,0.5,1.1,1.1V38l22.4-13L34.3,12v7.5c0,0.6-0.5,1.1-1.1,1.1h-21V29.4z"/>
	</g>
</g>
<path class="st0" d="M0,5.3v39.5C0,47.6,2.4,50,5.3,50h39.5c2.9,0,5.3-2.4,5.3-5.3v-9.4h-2.5v9.4c0,1.5-1.2,2.8-2.8,2.8H5.3
	c-1.5,0-2.8-1.2-2.8-2.8V5.3c0-1.5,1.2-2.8,2.8-2.8h39.5c1.5,0,2.8,1.2,2.8,2.8v9.4H50V5.3C50,2.4,47.6,0,44.7,0H5.3
	C2.4,0,0,2.4,0,5.3z"/>
</svg>
