<?xml version="1.0" encoding="utf-8"?>
<!-- Generator: Adobe Illustrator 15.0.1, SVG Export Plug-In . SVG Version: 6.00 Build 0)  -->
<!DOCTYPE svg PUBLIC "-//W3C//DTD SVG 1.1//EN" "http://www.w3.org/Graphics/SVG/1.1/DTD/svg11.dtd">
<svg version="1.1" id="Layer_1" xmlns="http://www.w3.org/2000/svg" xmlns:xlink="http://www.w3.org/1999/xlink" x="0px" y="0px"
	 width="50px" height="50px" viewBox="0 0 50 50" enable-background="new 0 0 50 50" xml:space="preserve">
<g>
	<g>
		<path fill="#00203F" stroke="#00203F" stroke-miterlimit="10" d="M49.437,23.269c-0.04-0.518-0.495-0.907-1.008-0.867
			c-0.519,0.034-0.908,0.488-0.875,1.006c0.636,8.575-3.784,16.897-11.251,21.198c-10.8,6.216-24.657,2.513-30.894-8.256
			c-6.233-10.767-2.52-24.583,8.278-30.8c7.292-4.196,16.453-3.952,23.524,0.563l-6.792,3.907c-0.307,0.177-0.49,0.512-0.466,0.868
			c0.008,0.148,0.052,0.29,0.121,0.417c0.1,0.171,0.251,0.311,0.44,0.39l16.161,6.971c0.289,0.123,0.624,0.097,0.889-0.075
			c0.263-0.171,0.422-0.463,0.43-0.777L48.152,1.45c0.003-0.336-0.178-0.651-0.469-0.821c-0.289-0.17-0.646-0.17-0.945-0.002
			l-7.75,4.463c-0.062-0.075-0.123-0.152-0.211-0.209c-7.722-5.237-17.944-5.612-26.032-0.956
			C1.046,10.661-2.976,25.628,3.777,37.292c6.754,11.666,21.769,15.673,33.468,8.942C45.334,41.572,50.119,32.561,49.437,23.269z
			 M46.254,3.078L46.12,16.383l-13.133-5.667L46.254,3.078z"/>
	</g>
</g>
</svg>
