<?xml version="1.0" encoding="utf-8"?>
<!-- Generator: Adobe Illustrator 15.0.1, SVG Export Plug-In . SVG Version: 6.00 Build 0)  -->
<!DOCTYPE svg PUBLIC "-//W3C//DTD SVG 1.1//EN" "http://www.w3.org/Graphics/SVG/1.1/DTD/svg11.dtd">
<svg version="1.1" id="Layer_1" xmlns="http://www.w3.org/2000/svg" xmlns:xlink="http://www.w3.org/1999/xlink" x="0px" y="0px"
	 width="50px" height="50px" viewBox="0 0 50 50" enable-background="new 0 0 50 50" xml:space="preserve">
<g id="XMLID_91_">
	<path id="XMLID_92_" d="M39.819,30.803h-2.035v-2.035c0-1.125-0.912-2.037-2.037-2.037s-2.035,0.912-2.035,2.037v2.035h-2.037
		c-1.123,0-2.035,0.912-2.035,2.035c0,1.125,0.912,2.037,2.035,2.037h2.037v2.035c0,1.125,0.91,2.037,2.035,2.037
		s2.037-0.912,2.037-2.037v-2.035h2.035c1.125,0,2.035-0.912,2.035-2.037C41.854,31.715,40.944,30.803,39.819,30.803z"/>
	<path id="XMLID_93_" d="M35.747,18.587c-4.68,0-8.842,2.269-11.44,5.764c-1.039-0.218-2.115-0.334-3.218-0.334
		c-1.173,0-2.316,0.131-3.416,0.377c-5.174,1.159-9.386,4.895-11.212,9.786c-0.633,1.695-0.981,3.531-0.981,5.445
		c0,1.125,0.912,2.037,2.036,2.037h17.047c2.611,3.305,6.654,5.428,11.184,5.428c7.859,0,14.252-6.393,14.252-14.252
		C49.999,24.98,43.606,18.587,35.747,18.587z M35.747,43.02c-1.844,0-3.574-0.496-5.068-1.357c-3.051-1.762-5.111-5.055-5.111-8.824
		c0-2.715,1.072-5.184,2.811-7.012c1.855-1.948,4.473-3.167,7.369-3.167c5.613,0,10.18,4.565,10.18,10.179S41.36,43.02,35.747,43.02
		z"/>
	<path id="XMLID_104_" d="M4.428,11.427c0,3.212,2.493,5.852,5.646,6.089C9.071,15.71,8.5,13.634,8.5,11.427
		s0.571-4.283,1.574-6.088C6.921,5.576,4.428,8.215,4.428,11.427z"/>
	<path id="XMLID_105_" d="M12.689,21.83c-0.702-0.146-1.423-0.223-2.154-0.223C4.726,21.607,0,26.334,0,32.143
		c0,1.125,0.912,2.037,2.036,2.037h0.139C3.75,28.719,7.63,24.227,12.689,21.83z"/>
	<path id="XMLID_106_" d="M14.146,6.504c-0.989,1.392-1.574,3.09-1.574,4.923s0.584,3.532,1.574,4.923
		c1.545,2.172,4.081,3.594,6.943,3.594c4.695,0,8.518-3.821,8.518-8.517c0-4.697-3.822-8.517-8.518-8.517
		C18.226,2.91,15.69,4.332,14.146,6.504z"/>
</g>
</svg>
