<?xml version="1.0" encoding="utf-8"?>
<!-- Generator: Adobe Illustrator 15.0.1, SVG Export Plug-In . SVG Version: 6.00 Build 0)  -->
<!DOCTYPE svg PUBLIC "-//W3C//DTD SVG 1.1//EN" "http://www.w3.org/Graphics/SVG/1.1/DTD/svg11.dtd">
<svg version="1.1" id="Layer_1" xmlns="http://www.w3.org/2000/svg" xmlns:xlink="http://www.w3.org/1999/xlink" x="0px" y="0px"
	 width="50px" height="50px" viewBox="0 0 50 50" enable-background="new 0 0 50 50" xml:space="preserve">
<g>
	<g>
		<path fill="#FFFFFF" d="M25,0c-6.798,0-12.328,5.667-12.328,12.633c0,6.967,5.53,12.635,12.328,12.635s12.328-5.667,12.328-12.635
			C37.328,5.667,31.798,0,25,0z M25,23.218c-5.695,0-10.328-4.748-10.328-10.585C14.672,6.797,19.305,2.05,25,2.05
			c5.695,0,10.328,4.748,10.328,10.583C35.328,18.471,30.695,23.218,25,23.218z"/>
	</g>
</g>
<g>
	<g>
		<path fill="#FFFFFF" d="M39.04,25.194c-0.185-0.13-0.558-0.378-0.558-0.378l-0.799-0.531l-0.558,0.792
			c-2.81,3.995-7.342,6.381-12.127,6.381c-4.786,0-9.32-2.386-12.128-6.382l-0.558-0.794l-1.264,0.849
			C4.131,29.908,0,37.857,0,46.396V50h50v-3.604C50,37.9,45.902,29.977,39.04,25.194z M48,47.95H2v-1.556
			c0-7.717,3.669-14.912,9.837-19.332c3.207,4.055,8.058,6.445,13.163,6.445c5.104,0,9.955-2.393,13.162-6.445
			C44.328,31.479,48,38.684,48,46.396V47.95z"/>
	</g>
</g>
</svg>
